# xmcd CD database file
#
# Track frame offsets:
#	150
#	22238
#	45423
#	69180
#	93628
#	121393
#	153110
#	208898
#	221335
#
# Disc length: 3441 seconds
#
# Revision: 3
# Processed by: cddbd v1.5.2PL0 Copyright (c) Steve Scherf et al.
# Submitted via: CDex 1.70beta2
#
DISCID=780d6f09
DTITLE=Jazztronik - NU BALANCE
DYEAR=2005
DGENRE=Jazz
TTITLE0=Feel The Air(Original Version)
TTITLE1=For a Long Time After
TTITLE2=Dizzin'
TTITLE3=Spur
TTITLE4=Sunshine in His Eyes
TTITLE5=Zoology
TTITLE6=Inner Flight
TTITLE7=Le Modele Aux Trois Visages
TTITLE8=Feel The Air 2005
EXTD=YEAR: 2005
EXTT0=
EXTT1=
EXTT2=
EXTT3=
EXTT4=
EXTT5=
EXTT6=
EXTT7=
EXTT8=
PLAYORDER=
